<svg enable-background="new 0 0 210 22" viewBox="0 0 210 22" xmlns="http://www.w3.org/2000/svg"><g clip-rule="evenodd" fill="#0028aa" fill-rule="evenodd"><path d="m39.5 2h-4.8c-1 0-1.8.7-2.3 1.6l-7.6 14.3c-.4.8-1.2 1.3-2.2 1.3h-6.6c-.1 0-.6 0-.8 0-4.2 0-7.6-3.4-7.6-7.6s3.4-7.6 7.6-7.6h.8 7.2.6.2c.2 0 .2-.1.2-.2v-.1-1.7h-1.5-11.9c-5.7 0-10.6 4.4-10.6 10 0 5.5 5 9.4 10.6 9.4h10 1.8 2c1.4 0 2.5-.8 3.1-2l.2-.3 1.7-3.2h9l2 4.3c.3.7 1.1 1.2 2.1 1.3h6.7l-7.5-17.9c-.4-.9-1.3-1.6-2.4-1.6m-8.9 11.7 2.2-4.1c.3-.5.9-.8 1.4-.8.7 0 1.3.4 1.5 1l1.8 3.9z"/><path d="m84.3 19.3c-.3-.1-.6-.2-.7-.6v-16.7h-9.9v16.8c0 1.4 1.1 2.5 2.5 2.5h21c.2 0 .2-.2.2-.3v-1.9h-13.1z"/><path d="m47.6 2v1.8c0 .1.1.3.3.3h7.1c.3 0 .6.3.6.6v16.8h8.3c.2 0 .2-.1.2-.2l-.1-16.7c0-.3.3-.6.6-.6h7.2v-2.1h-12.3-11.9z"/><path d="m179.6 18.3v-12.8c0-.5-.4-.9-.9-.9h-7.5v-2.3h8.4v-1.6h3.4v1.6h1.9v2.3h-1.9v14.4c0 1.3-1.1 2.4-2.4 2.4h-.3-.7-5.8c-.3 0-.5-.2-.5-.5v-1.6h5.3c.6 0 1-.5 1-1m-18.2-17.2h6.3c1.4 0 2.6 1.1 2.6 2.5v17.8h-8.9zm2.8 10.9v7.3h3.2v-6.4c0-.5-.4-.9-.9-.9zm0-8.9v6.8h3.2v-5.9c0-.5-.4-.9-.9-.9zm8.2 4.7 1.6 7.7h3.2l-1.6-6.7c-.1-.5-.4-1-1-1z"/><path d="m191.9 6.4v14.2c0 .4-.4.8-.8.8h-2.6v-12.3c-.9.5-1.6.7-1.6.7v-3.7s1.3-.8 2.2-2.4c.9-1.5 1-3 1-3h3.1s.3 2-.9 4.9c-.1.3-.3.5-.4.8m14.8-1.7c0 .5-.4.8-.8.8h-2.9l-.5-4.9h-3.6l.5 4.9h-5.4v2.5h5.8l6 13.3h4l-6.1-13.3h3.7c1.4 0 2.5-1.1 2.5-2.5 0-1-.4-2.1-.8-3h-3.1c.3.9.6 1.6.7 2.2z"/><path d="m111.7 4.5v2.9h-4.2v-2.4-2.9h3.5.7 5.4v-1.3h4.4v1.3h6.5c2.1 0 3.2.9 3.2 2.8v2.6h-4.2v-1.8c0-.9-.9-1.2-2.3-1.2zm10 14.7c0 .5-.2 1-.6 1.4-.6.5-1.2.8-1.9.8h-6v-2.4h3.6.3c.2 0 .3 0 .4-.1.1-.2.2-.4.2-.6v-5c0-1.4-.8-1.8-2.5-1.8h-7.9v-2.3h24v1c0 1.3-.2 1.3-1.5 1.3h-8.2v7.7z"/><path d="m138.9 9v11.6c0 .4-.3.8-.7.8h-2.4v-9.7l-.1.1c-.8.4-1.4.7-1.4.7v-3.5c1.2-.5 2.5-1.9 3-3-.8.7-1.8 1.2-3 1.7v-3.5c1.6-.6 2.7-2.3 2.9-3.5h3c-.3 2-1.1 3.6-2.3 4.8h2.3c-.2 1.4-.6 2.6-1.3 3.5m8.5 6.4 4.1 1.2v-1.1c.1-.9 1.5-.8 3.6.1l3.3 1.2v1.9l-4.3-1.6v.7c0 1-.3 1.4-2.1.9-1.2-.4-3.7-1-3.9-1.1s-.7-.2-.7-.7zm.4-14.5h2.8v.8h7.4v1.3c0 .4-.3.6-.6.6h-6.8v1.3h4.3c1.3 0 2.3 1.1 2.3 2.4v2.3.9 1h-16.1v-.1-1.7-2.8-1.7-.3h6.6v-1.3h-7.4v-1.9h7.4v-.8zm-3.9 14.6v4.2c0 .9.7 1.6 1.5 1.6h.9.4 9.8c.5 0 1-.5 1-1v-.9h-10c-.8 0-.9-.3-.9-1.1v-2.7h-2.7zm-3.4 0h2.6v4.4c0 .8-.6 1.4-1.4 1.4h-1.2zm12.1-8.7v2.9h2v-2.1c0-.5-.4-.8-.8-.8zm-4.4 0v2.9h2v-2.1c0-.5-.4-.8-.8-.8zm-4.4 0v2.9h2v-2.1c0-.5-.4-.8-.8-.8zm-2.8 5.8h16.4v1.1c0 .4-.3.6-.6.6h-15.8z"/></g></svg>